<svg xmlns="http://www.w3.org/2000/svg" xmlns:xlink="http://www.w3.org/1999/xlink" xmlns:lucid="lucid" width="2774" height="846"><g transform="translate(-1062 977)" lucid:page-tab-id="0_0"><path d="M1280-872a6 6 0 0 1 6-6h608a6 6 0 0 1 6 6v666a6 6 0 0 1-6 6h-608a6 6 0 0 1-6-6z" fill="#fff"/><path d="M1283.28-877.35l.87-.36.9-.23.95-.07h3m3.98 0h5.98m3.98 0h5.98m4 0h5.97m3.98 0h5.98m4 0h5.97m3.98 0h6m3.98 0h5.98m4 0h5.97m3.98 0h6m3.98 0h5.98m4 0h5.97m4 0h5.97m3.98 0h5.98m4 0h5.97m4 0h5.97m3.98 0h6m3.97 0h5.98m4 0h5.97m4 0h5.97m3.98 0h5.98m4 0h5.97m4 0h5.97m4 0h5.97m3.98 0h5.98m4 0h5.97m4 0h5.97m3.98 0h6m3.97 0h5.97m4 0h5.97m4 0h5.97m4 0h5.97m4 0h5.97m4 0h5.97m4 0h5.97m4 0h5.97m4 0h5.97m4 0h5.98m3.98 0h5.98m4 0h5.97m4 0h5.98m4 0h5.97m3.98 0h5.98m4 0h5.98m4 0h5.97m3.98 0h6m3.97 0h5.98m4 0h5.97m4 0h5.97m3.98 0h5.98m4 0h5.97m4 0h5.97m4 0h5.97m3.97 0h5.98m4 0h5.97m4 0h5.97m3.97 0h5.98m4 0h5.97m4 0h5.97m3.98 0h5.98m3.98 0h5.98m4 0h2.98l.94.07.9.22.88.35m2.63 2.63l.36.87.23.9.07.95v2.98m0 3.98v5.96m0 3.98v5.96m0 3.98v5.96m0 3.98v5.96m0 3.98v5.96m0 3.98v5.96m0 3.98v5.96m0 3.98v5.96m0 3.98v5.97m0 3.97v5.97m0 3.96v5.97m0 3.97v5.97m0 3.97v5.97m0 3.98v5.97m0 3.97v5.97m0 3.96v5.97m0 3.97v5.97m0 3.97v5.97m0 3.98v5.97m0 3.97v5.97m0 3.96v5.97m0 3.97v5.97m0 3.98v5.96m0 4v5.95m0 3.98v5.96m0 3.97v5.96m0 3.98v5.97m0 3.98v5.96m0 4v5.95m0 3.98v5.96m0 3.97v5.96m0 3.98v5.97m0 3.98v5.96m0 4v5.95m0 3.98v5.96m0 3.97v5.96m0 3.98v5.97m0 3.98v5.96m0 4v5.95m0 3.98v5.96m0 3.97v5.96m0 3.98v5.98m0 3.97v5.97m0 3.97v5.96m0 3.97v5.97m0 3.97v5.97m0 3.97v5.98m0 3.97v5.97m0 3.97v5.96m0 3.97v5.97m0 3.97v5.97m0 3.97v5.98m0 3.97v5.97m0 3.97v5.96m0 3.97v5.97m0 3.98v5.96m0 3.98v5.96m0 3.98v5.96m0 3.98v5.96m0 3.98v5.96m0 3.98v5.96m0 3.98v5.96m0 3.98v5.96m0 3.98v5.96m0 3.98v5.96m0 3.98v5.96m0 3.98v2.98l-.07.94-.22.9-.35.88m-2.63 2.63l-.87.36-.9.23-.95.07h-3m-3.98 0h-5.98m-3.98 0h-5.98m-4 0h-5.97m-3.98 0h-5.98m-4 0h-5.97m-3.98 0h-6m-3.98 0h-5.98m-4 0h-5.97m-3.98 0h-6m-3.98 0h-5.98m-4 0h-5.97m-4 0h-5.97m-3.98 0h-5.98m-4 0h-5.97m-4 0h-5.97m-3.98 0h-6m-3.97 0h-5.98m-4 0h-5.97m-4 0h-5.97m-3.98 0h-5.98m-4 0h-5.97m-4 0h-5.97m-4 0h-5.97m-3.98 0h-5.98m-4 0h-5.97m-4 0h-5.97m-3.98 0h-6m-3.97 0h-5.97m-4 0h-5.97m-4 0H1592m-4 0h-5.97m-4 0h-5.97m-4 0h-5.97m-4 0h-5.97m-4 0h-5.97m-4 0h-5.97m-4 0h-5.98m-3.98 0h-5.98m-4 0h-5.97m-4 0h-5.98m-4 0h-5.97m-3.98 0h-5.98m-4 0h-5.98m-4 0h-5.97m-3.98 0h-6m-3.97 0h-5.98m-4 0h-5.97m-4 0h-5.97m-3.98 0h-5.98m-4 0h-5.97m-4 0h-5.97m-4 0h-5.97m-3.97 0h-5.98m-4 0h-5.97m-4 0h-5.97m-3.97 0h-5.98m-4 0h-5.97m-4 0h-5.97m-3.98 0h-5.98m-3.98 0h-5.98m-4 0H1286l-.94-.07-.9-.22-.88-.35m-2.63-2.63l-.36-.87-.23-.9-.07-.95v-2.98m0-3.98v-5.96m0-3.98v-5.96m0-3.98v-5.96m0-3.98v-5.96m0-3.98v-5.96m0-3.98v-5.96m0-3.98v-5.96m0-3.98v-5.96m0-3.98v-5.96m0-3.98v-5.96m0-3.98v-5.96m0-3.98v-5.97m0-3.97v-5.97m0-3.98v-5.97m0-3.97v-5.97m0-3.96v-5.97m0-3.97v-5.97m0-3.97v-5.97m0-3.98v-5.97m0-3.97v-5.97m0-3.96v-5.97m0-3.97v-5.97m0-3.97v-5.97m0-3.98v-5.97m0-3.97v-5.97m0-3.97v-5.96m0-3.98v-5.97m0-3.98v-5.96m0-4v-5.95m0-3.98v-5.96m0-3.97v-5.96m0-3.98v-5.97m0-3.98V-537m0-4v-5.95m0-3.98v-5.96m0-3.97v-5.96m0-3.98v-5.97m0-3.98v-5.96m0-4v-5.95m0-3.98v-5.96m0-3.97v-5.96m0-3.98v-5.98m0-3.97v-5.96m0-4v-5.96m0-3.97v-5.97m0-3.97v-5.97m0-3.97v-5.98m0-3.97v-5.97m0-3.97v-5.96m0-3.97V-706m0-3.97v-5.97m0-3.97v-5.98m0-3.97v-5.97m0-3.97v-5.96m0-3.97v-5.97m0-3.97v-5.97m0-3.98v-5.96m0-3.97v-5.97m0-3.98v-5.96m0-3.98v-5.96m0-3.98v-5.96m0-3.98v-5.96m0-3.98v-5.96m0-3.98v-5.96m0-3.98v-5.96m0-3.98v-5.96m0-3.98V-872l.07-.94.22-.9.35-.88" stroke="#282c33" stroke-width="2" fill="none"/><path d="M1340-314a6 6 0 0 1 6-6h88a6 6 0 0 1 6 6v88a6 6 0 0 1-6 6h-88a6 6 0 0 1-6-6z" stroke="#282c33" stroke-width="2" fill="#f4d9ff"/><use xlink:href="#a" transform="matrix(1,0,0,1,1352,-308) translate(16.76543209876543 41.52777777777778)"/><path d="M1540-314a6 6 0 0 1 6-6h88a6 6 0 0 1 6 6v88a6 6 0 0 1-6 6h-88a6 6 0 0 1-6-6z" stroke="#282c33" stroke-width="2" fill="#ffd6f5"/><use xlink:href="#b" transform="matrix(1,0,0,1,1552,-308) translate(10.46913580246914 41.52777777777778)"/><path d="M1740-314a6 6 0 0 1 6-6h88a6 6 0 0 1 6 6v88a6 6 0 0 1-6 6h-88a6 6 0 0 1-6-6z" stroke="#282c33" stroke-width="2" fill="#ffd9d9"/><use xlink:href="#c" transform="matrix(1,0,0,1,1752,-308) translate(7.783950617283956 41.52777777777778)"/><path d="M1340-474a6 6 0 0 1 6-6h288a6 6 0 0 1 6 6v88a6 6 0 0 1-6 6h-288a6 6 0 0 1-6-6z" stroke="#282c33" stroke-width="2" fill="#fcfcca"/><use xlink:href="#d" transform="matrix(1,0,0,1,1352,-468) translate(101.67283950617283 41.52777777777778)"/><path d="M1340-674a6 6 0 0 1 6-6h488a6 6 0 0 1 6 6v108a6 6 0 0 1-6 6h-488a6 6 0 0 1-6-6z" stroke="#282c33" stroke-width="2" fill="#fcfcca"/><use xlink:href="#d" transform="matrix(1,0,0,1,1352,-668) translate(201.67283950617283 53.77777777777778)"/><path d="M1340-833a6 6 0 0 1 6-6h488a6 6 0 0 1 6 6v94.8a6 6 0 0 1-6 6h-488a6 6 0 0 1-6-6z" stroke="#282c33" stroke-width="2" fill="#dedeff"/><use xlink:href="#e" transform="matrix(1,0,0,1,1352,-827) translate(201.64197530864197 46.30902777777778)"/><path d="M1390-321.5v-50.63" stroke="#3a414a" fill="none"/><path d="M1390.47-321h-.94v-.5h.94z" stroke="#3a414a" stroke-width=".05" fill="#3a414a"/><path d="M1390-378.02l7.64 12.9h-15.28z" stroke="#3a414a" fill="#3a414a"/><path d="M1590-321.5v-50.63" stroke="#3a414a" fill="none"/><path d="M1590.47-321h-.94v-.5h.94z" stroke="#3a414a" stroke-width=".05" fill="#3a414a"/><path d="M1590-378.02l7.64 12.9h-15.28z" stroke="#3a414a" fill="#3a414a"/><path d="M1490-481.5v-70.63" stroke="#3a414a" fill="none"/><path d="M1490.47-481h-.94v-.5h.94z" stroke="#3a414a" stroke-width=".05" fill="#3a414a"/><path d="M1490-558.02l7.64 12.9h-15.28z" stroke="#3a414a" fill="#3a414a"/><path d="M1790-321.5v-230.63" stroke="#3a414a" fill="none"/><path d="M1790.47-321h-.94v-.5h.94z" stroke="#3a414a" stroke-width=".05" fill="#3a414a"/><path d="M1790-558.02l7.64 12.9h-15.28z" stroke="#3a414a" fill="#3a414a"/><path d="M1590-681.5v-42.82" stroke="#3a414a" fill="none"/><path d="M1590.47-681h-.94v-.5h.94z" stroke="#3a414a" stroke-width=".05" fill="#3a414a"/><path d="M1590-730.2l7.64 12.9h-15.28z" stroke="#3a414a" fill="#3a414a"/><path d="M2000-294a6 6 0 0 1 6-6h88a6 6 0 0 1 6 6v88a6 6 0 0 1-6 6h-88a6 6 0 0 1-6-6z" stroke="#282c33" stroke-width="2" fill="#f4d9ff"/><use xlink:href="#f" transform="matrix(1,0,0,1,2012,-288) translate(18.864197530864196 41.52777777777778)"/><path d="M2200-294a6 6 0 0 1 6-6h88a6 6 0 0 1 6 6v88a6 6 0 0 1-6 6h-88a6 6 0 0 1-6-6z" stroke="#282c33" stroke-width="2" fill="#ffd6f5"/><use xlink:href="#g" transform="matrix(1,0,0,1,2212,-288) translate(10.46913580246914 41.52777777777778)"/><path d="M2400-294a6 6 0 0 1 6-6h88a6 6 0 0 1 6 6v88a6 6 0 0 1-6 6h-88a6 6 0 0 1-6-6z" stroke="#282c33" stroke-width="2" fill="#ffd9d9"/><use xlink:href="#h" transform="matrix(1,0,0,1,2412,-288) translate(7.783950617283956 41.52777777777778)"/><path d="M2000-434a6 6 0 0 1 6-6h88a6 6 0 0 1 6 6v88a6 6 0 0 1-6 6h-88a6 6 0 0 1-6-6z" stroke="#282c33" stroke-width="2" fill="#e3fae3"/><use xlink:href="#i" transform="matrix(1,0,0,1,2012,-428) translate(10.932098765432102 41.52777777777778)"/><path d="M2200-434a6 6 0 0 1 6-6h88a6 6 0 0 1 6 6v88a6 6 0 0 1-6 6h-88a6 6 0 0 1-6-6z" stroke="#282c33" stroke-width="2" fill="#e3fae3"/><use xlink:href="#i" transform="matrix(1,0,0,1,2212,-428) translate(10.932098765432102 41.52777777777778)"/><path d="M2400-434a6 6 0 0 1 6-6h88a6 6 0 0 1 6 6v88a6 6 0 0 1-6 6h-88a6 6 0 0 1-6-6z" stroke="#282c33" stroke-width="2" fill="#e3fae3"/><use xlink:href="#i" transform="matrix(1,0,0,1,2412,-428) translate(10.932098765432102 41.52777777777778)"/><path d="M2000-694a6 6 0 0 1 6-6h488a6 6 0 0 1 6 6v88a6 6 0 0 1-6 6h-488a6 6 0 0 1-6-6z" stroke="#282c33" stroke-width="2" fill="#f2f2ff"/><use xlink:href="#j" transform="matrix(1,0,0,1,2012,-688) translate(96.73456790123458 41.52777777777778)"/><use xlink:href="#k" transform="matrix(1,0,0,1,2012,-688) translate(176.91975308641975 41.52777777777778)"/><use xlink:href="#l" transform="matrix(1,0,0,1,2012,-688) translate(213.9567901234568 41.52777777777778)"/><use xlink:href="#m" transform="matrix(1,0,0,1,2012,-688) translate(294.141975308642 41.52777777777778)"/><path d="M2580-714a6 6 0 0 1 6-6h148a6 6 0 0 1 6 6v508a6 6 0 0 1-6 6h-148a6 6 0 0 1-6-6z" fill="none"/><path d="M2580-200c5.52 0 10-4.48 10-10v-240c0-5.52 4.48-10 10-10-5.52 0-10-4.48-10-10v-240c0-5.52-4.48-10-10-10" stroke="#282c33" stroke-width="2" fill="none"/><path d="M2606.77-460h262.82M2606.78-460h-3.5" stroke="#3a414a" fill="none"/><path d="M2875.48-460l-12.9 7.64v-15.28z" stroke="#3a414a" fill="#3a414a"/><path d="M2877.47-504a6 6 0 0 1 6-6h88a6 6 0 0 1 6 6v88a6 6 0 0 1-6 6h-88a6 6 0 0 1-6-6z" stroke="#282c33" stroke-width="2" fill="#dfe3e8"/><use xlink:href="#n" transform="matrix(1,0,0,1,2889.4663083273826,-498) translate(2.845679012345677 41.52777777777778)"/><path d="M3037.47-504a6 6 0 0 1 6-6h88a6 6 0 0 1 6 6v88a6 6 0 0 1-6 6h-88a6 6 0 0 1-6-6z" stroke="#282c33" stroke-width="2" fill="#e3fae3"/><use xlink:href="#o" transform="matrix(1,0,0,1,3049.4663083273826,-498) translate(7.197530864197535 41.52777777777778)"/><path d="M3197.47-504a6 6 0 0 1 6-6h88a6 6 0 0 1 6 6v88a6 6 0 0 1-6 6h-88a6 6 0 0 1-6-6z" stroke="#282c33" stroke-width="2" fill="#d7faf5"/><use xlink:href="#p" transform="matrix(1,0,0,1,3209.4663083273826,-498) translate(21.98148148148148 29.65277777777778)"/><use xlink:href="#q" transform="matrix(1,0,0,1,3209.4663083273826,-498) translate(10.253086419753089 56.31944444444445)"/><path d="M2978.97-460h50.62" stroke="#3a414a" fill="none"/><path d="M2978.98-459.52h-.5v-.96h.5z" stroke="#3a414a" stroke-width=".05" fill="#3a414a"/><path d="M3035.48-460l-12.9 7.64v-15.28z" stroke="#3a414a" fill="#3a414a"/><path d="M3138.97-460h50.62" stroke="#3a414a" fill="none"/><path d="M3138.98-459.52h-.5v-.96h.5z" stroke="#3a414a" stroke-width=".05" fill="#3a414a"/><path d="M3195.48-460l-12.9 7.64v-15.28z" stroke="#3a414a" fill="#3a414a"/><path d="M2050-301.5v-30.63" stroke="#3a414a" fill="none"/><path d="M2050.47-301h-.94v-.5h.94z" stroke="#3a414a" stroke-width=".05" fill="#3a414a"/><path d="M2050-338.02l7.64 12.9h-15.28z" stroke="#3a414a" fill="#3a414a"/><path d="M2250-301.5v-30.63" stroke="#3a414a" fill="none"/><path d="M2250.47-301h-.94v-.5h.94z" stroke="#3a414a" stroke-width=".05" fill="#3a414a"/><path d="M2250-338.02l7.64 12.9h-15.28z" stroke="#3a414a" fill="#3a414a"/><path d="M2452.04-301.5v-30.63" stroke="#3a414a" fill="none"/><path d="M2452.5-301h-.94v-.5h.95z" stroke="#3a414a" stroke-width=".05" fill="#3a414a"/><path d="M2452.04-338.02l7.63 12.9h-15.27z" stroke="#3a414a" fill="#3a414a"/><path d="M2050.02-571.64l1-20.5" stroke="#3a414a" fill="none"/><path d="M2050.5-571.63l-.02.5h-.96l.03-.54z" stroke="#3a414a" stroke-width=".05" fill="#3a414a"/><path d="M2051.3-598.02l7 13.26-15.26-.73z" stroke="#3a414a" fill="#3a414a"/><path d="M2051.3-441.5l-.98-20.77" stroke="#3a414a" fill="none"/><path d="M2051.8-441h-.94l-.03-.5.95-.04z" stroke="#3a414a" stroke-width=".05" fill="#3a414a"/><path d="M2050.05-468.16l8.23 12.54-15.25.72z" stroke="#3a414a" fill="#3a414a"/><path d="M2243.98-572.1l1.55-20.05" stroke="#3a414a" fill="none"/><path d="M2244.45-572.06l-.03.47h-.96l.05-.54z" stroke="#3a414a" stroke-width=".05" fill="#3a414a"/><path d="M2245.98-598.02l6.62 13.46-15.22-1.18z" stroke="#3a414a" fill="#3a414a"/><path d="M2246.06-441.5l-1.63-21.24" stroke="#3a414a" fill="none"/><path d="M2246.57-441h-.95l-.04-.48.95-.07z" stroke="#3a414a" stroke-width=".05" fill="#3a414a"/><path d="M2243.98-468.6l8.6 12.28-15.23 1.17z" stroke="#3a414a" fill="#3a414a"/><path d="M2450-570.5v-21.63" stroke="#3a414a" fill="none"/><path d="M2450.47-570h-.94v-.5h.94z" stroke="#3a414a" stroke-width=".05" fill="#3a414a"/><path d="M2450-598.02l7.64 12.9h-15.28z" stroke="#3a414a" fill="#3a414a"/><path d="M2450-441.5v-19.63" stroke="#3a414a" fill="none"/><path d="M2450.47-441h-.94v-.5h.94z" stroke="#3a414a" stroke-width=".05" fill="#3a414a"/><path d="M2450-467.02l7.64 12.9h-15.28z" stroke="#3a414a" fill="#3a414a"/><path d="M1998.8-650.46l-97.95-223.28" stroke="#3a414a" fill="none"/><path d="M1999-648.82l-.64-1.46.64-.28zM1901.3-873.92l-.53.22-.1-.46-.43-1.02-.57-.94-.58-.67.77-.34z" stroke="#3a414a" stroke-width=".05" fill="#3a414a"/><path d="M1998.9-649.5L1901-205.4" stroke="#3a414a" fill="none"/><path d="M1999-649.48l-.57-.12.57-2.6zM1901.5-205.3l-.77 3.43-.92-.2.02-.07.42-.68.42-1.02.26-1.06.04-.52z" stroke="#3a414a" stroke-width=".05" fill="#3a414a"/><path d="M2000-564.14a6 6 0 0 1 6-6h88a6 6 0 0 1 6 6v88a6 6 0 0 1-6 6h-88a6 6 0 0 1-6-6z" stroke="#282c33" stroke-width="2" fill="#d7faf5"/><use xlink:href="#p" transform="matrix(1,0,0,1,2012,-558.1376800751351) translate(21.98148148148148 29.65277777777778)"/><use xlink:href="#r" transform="matrix(1,0,0,1,2012,-558.1376800751351) translate(13.987654320987655 56.31944444444445)"/><path d="M2190-564.6a6 6 0 0 1 6-6h88a6 6 0 0 1 6 6v88a6 6 0 0 1-6 6h-88a6 6 0 0 1-6-6z" stroke="#282c33" stroke-width="2" fill="#d7faf5"/><use xlink:href="#p" transform="matrix(1,0,0,1,2202,-558.5885493231011) translate(21.98148148148148 29.65277777777778)"/><use xlink:href="#r" transform="matrix(1,0,0,1,2202,-558.5885493231011) translate(13.987654320987655 56.31944444444445)"/><path d="M2400-563a6 6 0 0 1 6-6h88a6 6 0 0 1 6 6v88a6 6 0 0 1-6 6h-88a6 6 0 0 1-6-6z" stroke="#282c33" stroke-width="2" fill="#d7faf5"/><use xlink:href="#p" transform="matrix(1,0,0,1,2412,-557) translate(21.98148148148148 29.65277777777778)"/><use xlink:href="#q" transform="matrix(1,0,0,1,2412,-557) translate(10.253086419753089 56.31944444444445)"/><path d="M3298.97-460h50.62" stroke="#3a414a" fill="none"/><path d="M3298.98-459.52h-.5v-.96h.5z" stroke="#3a414a" stroke-width=".05" fill="#3a414a"/><path d="M3355.48-460l-12.9 7.64v-15.28z" stroke="#3a414a" fill="#3a414a"/><path d="M3357.47-504a6 6 0 0 1 6-6h88a6 6 0 0 1 6 6v88a6 6 0 0 1-6 6h-88a6 6 0 0 1-6-6z" stroke="#282c33" stroke-width="2" fill="#e3fae3"/><use xlink:href="#o" transform="matrix(1,0,0,1,3369.4663083273826,-498) translate(7.197530864197535 41.52777777777778)"/><path d="M3458.97-460h50.62" stroke="#3a414a" fill="none"/><path d="M3458.98-459.52h-.5v-.96h.5z" stroke="#3a414a" stroke-width=".05" fill="#3a414a"/><path d="M3515.48-460l-12.9 7.64v-15.28z" stroke="#3a414a" fill="#3a414a"/><path d="M3517.47-504a6 6 0 0 1 6-6h88a6 6 0 0 1 6 6v88a6 6 0 0 1-6 6h-88a6 6 0 0 1-6-6z" stroke="#282c33" stroke-width="2" fill="#d7faf5"/><g><use xlink:href="#p" transform="matrix(1,0,0,1,3529.4663083273826,-498) translate(21.98148148148148 29.65277777777778)"/><use xlink:href="#q" transform="matrix(1,0,0,1,3529.4663083273826,-498) translate(10.253086419753089 56.31944444444445)"/></g><path d="M2620-514a6 6 0 0 1 6-6h248a6 6 0 0 1 6 6v51.33a6 6 0 0 1-6 6h-248a6 6 0 0 1-6-6z" stroke="#000" stroke-opacity="0" stroke-width="2" fill="#fff" fill-opacity="0"/><g><use xlink:href="#s" transform="matrix(1,0,0,1,2625,-515) translate(30.648148148148152 21.15277777777778)"/><use xlink:href="#t" transform="matrix(1,0,0,1,2625,-515) translate(91.08024691358025 21.15277777777778)"/><use xlink:href="#u" transform="matrix(1,0,0,1,2625,-515) translate(174.96913580246914 21.15277777777778)"/><use xlink:href="#v" transform="matrix(1,0,0,1,2625,-515) translate(207.00617283950618 21.15277777777778)"/><use xlink:href="#w" transform="matrix(1,0,0,1,2625,-515) translate(94.75308641975309 47.81944444444444)"/></g><defs><path fill="#3a414a" d="M194 0L95-120 63-95V0H30v-248h33v124l119-124h40L117-140 236 0h-42" id="x"/><path fill="#3a414a" d="M100-194c63 0 86 42 84 106H49c0 40 14 67 53 68 26 1 43-12 49-29l28 8c-11 28-37 45-77 45C44 4 14-33 15-96c1-61 26-98 85-98zm52 81c6-60-76-77-97-28-3 7-6 17-6 28h103" id="y"/><path fill="#3a414a" d="M179-190L93 31C79 59 56 82 12 73V49c39 6 53-20 64-50L1-190h34L92-34l54-156h33" id="z"/><path fill="#3a414a" d="M47-170H22l-4-78h33" id="A"/><g id="a"><use transform="matrix(0.06172839506172839,0,0,0.06172839506172839,0,0)" xlink:href="#x"/><use transform="matrix(0.06172839506172839,0,0,0.06172839506172839,14.814814814814813,0)" xlink:href="#y"/><use transform="matrix(0.06172839506172839,0,0,0.06172839506172839,27.160493827160494,0)" xlink:href="#z"/><use transform="matrix(0.06172839506172839,0,0,0.06172839506172839,38.27160493827161,0)" xlink:href="#A"/></g><path fill="#3a414a" d="M137 0h-34L2-248h35l83 218 83-218h36" id="B"/><path fill="#3a414a" d="M141-36C126-15 110 5 73 4 37 3 15-17 15-53c-1-64 63-63 125-63 3-35-9-54-41-54-24 1-41 7-42 31l-33-3c5-37 33-52 76-52 45 0 72 20 72 64v82c-1 20 7 32 28 27v20c-31 9-61-2-59-35zM48-53c0 20 12 33 32 33 41-3 63-29 60-74-43 2-92-5-92 41" id="C"/><path fill="#3a414a" d="M24 0v-261h32V0H24" id="D"/><path fill="#3a414a" d="M84 4C-5 8 30-112 23-190h32v120c0 31 7 50 39 49 72-2 45-101 50-169h31l1 190h-30c-1-10 1-25-2-33-11 22-28 36-60 37" id="E"/><g id="b"><use transform="matrix(0.06172839506172839,0,0,0.06172839506172839,0,0)" xlink:href="#B"/><use transform="matrix(0.06172839506172839,0,0,0.06172839506172839,13.148148148148147,0)" xlink:href="#C"/><use transform="matrix(0.06172839506172839,0,0,0.06172839506172839,25.493827160493826,0)" xlink:href="#D"/><use transform="matrix(0.06172839506172839,0,0,0.06172839506172839,30.370370370370367,0)" xlink:href="#E"/><use transform="matrix(0.06172839506172839,0,0,0.06172839506172839,42.716049382716044,0)" xlink:href="#y"/></g><path fill="#3a414a" d="M140-251c81 0 123 46 123 126C263-53 228-8 163 1c7 30 30 48 69 40v23c-55 16-95-15-103-61C56-3 17-48 17-125c0-80 42-126 123-126zm0 227c63 0 89-41 89-101s-29-99-89-99c-61 0-89 39-89 99S79-25 140-24" id="F"/><path fill="#3a414a" d="M114-163C36-179 61-72 57 0H25l-1-190h30c1 12-1 29 2 39 6-27 23-49 58-41v29" id="G"/><g id="c"><use transform="matrix(0.06172839506172839,0,0,0.06172839506172839,0,0)" xlink:href="#F"/><use transform="matrix(0.06172839506172839,0,0,0.06172839506172839,17.28395061728395,0)" xlink:href="#E"/><use transform="matrix(0.06172839506172839,0,0,0.06172839506172839,29.629629629629626,0)" xlink:href="#y"/><use transform="matrix(0.06172839506172839,0,0,0.06172839506172839,41.9753086419753,0)" xlink:href="#G"/><use transform="matrix(0.06172839506172839,0,0,0.06172839506172839,49.32098765432098,0)" xlink:href="#z"/></g><path fill="#3a414a" d="M240 0l2-218c-23 76-54 145-80 218h-23L58-218 59 0H30v-248h44l77 211c21-75 51-140 76-211h43V0h-30" id="H"/><path fill="#3a414a" d="M59-47c-2 24 18 29 38 22v24C64 9 27 4 27-40v-127H5v-23h24l9-43h21v43h35v23H59v120" id="I"/><g id="d"><use transform="matrix(0.06172839506172839,0,0,0.06172839506172839,0,0)" xlink:href="#H"/><use transform="matrix(0.06172839506172839,0,0,0.06172839506172839,18.456790123456788,0)" xlink:href="#C"/><use transform="matrix(0.06172839506172839,0,0,0.06172839506172839,30.80246913580247,0)" xlink:href="#I"/><use transform="matrix(0.06172839506172839,0,0,0.06172839506172839,36.97530864197531,0)" xlink:href="#H"/><use transform="matrix(0.06172839506172839,0,0,0.06172839506172839,55.4320987654321,0)" xlink:href="#E"/><use transform="matrix(0.06172839506172839,0,0,0.06172839506172839,67.77777777777779,0)" xlink:href="#D"/></g><path fill="#3a414a" d="M185-189c-5-48-123-54-124 2 14 75 158 14 163 119 3 78-121 87-175 55-17-10-28-26-33-46l33-7c5 56 141 63 141-1 0-78-155-14-162-118-5-82 145-84 179-34 5 7 8 16 11 25" id="J"/><path fill="#3a414a" d="M96-169c-40 0-48 33-48 73s9 75 48 75c24 0 41-14 43-38l32 2c-6 37-31 61-74 61-59 0-76-41-82-99-10-93 101-131 147-64 4 7 5 14 7 22l-32 3c-4-21-16-35-41-35" id="K"/><path fill="#3a414a" d="M24-231v-30h32v30H24zM24 0v-190h32V0H24" id="L"/><path fill="#3a414a" d="M117-194c89-4 53 116 60 194h-32v-121c0-31-8-49-39-48C34-167 62-67 57 0H25l-1-190h30c1 10-1 24 2 32 11-22 29-35 61-36" id="M"/><path fill="#3a414a" d="M177-190C167-65 218 103 67 71c-23-6-38-20-44-43l32-5c15 47 100 32 89-28v-30C133-14 115 1 83 1 29 1 15-40 15-95c0-56 16-97 71-98 29-1 48 16 59 35 1-10 0-23 2-32h30zM94-22c36 0 50-32 50-73 0-42-14-75-50-75-39 0-46 34-46 75s6 73 46 73" id="N"/><g id="e"><use transform="matrix(0.06172839506172839,0,0,0.06172839506172839,0,0)" xlink:href="#J"/><use transform="matrix(0.06172839506172839,0,0,0.06172839506172839,14.814814814814813,0)" xlink:href="#K"/><use transform="matrix(0.06172839506172839,0,0,0.06172839506172839,25.925925925925924,0)" xlink:href="#C"/><use transform="matrix(0.06172839506172839,0,0,0.06172839506172839,38.2716049382716,0)" xlink:href="#D"/><use transform="matrix(0.06172839506172839,0,0,0.06172839506172839,43.148148148148145,0)" xlink:href="#L"/><use transform="matrix(0.06172839506172839,0,0,0.06172839506172839,48.02469135802469,0)" xlink:href="#M"/><use transform="matrix(0.06172839506172839,0,0,0.06172839506172839,60.37037037037037,0)" xlink:href="#N"/></g><g id="f"><use transform="matrix(0.06172839506172839,0,0,0.06172839506172839,0,0)" xlink:href="#x"/><use transform="matrix(0.06172839506172839,0,0,0.06172839506172839,14.814814814814813,0)" xlink:href="#y"/><use transform="matrix(0.06172839506172839,0,0,0.06172839506172839,27.160493827160494,0)" xlink:href="#z"/></g><g id="g"><use transform="matrix(0.06172839506172839,0,0,0.06172839506172839,0,0)" xlink:href="#B"/><use transform="matrix(0.06172839506172839,0,0,0.06172839506172839,13.148148148148147,0)" xlink:href="#C"/><use transform="matrix(0.06172839506172839,0,0,0.06172839506172839,25.493827160493826,0)" xlink:href="#D"/><use transform="matrix(0.06172839506172839,0,0,0.06172839506172839,30.370370370370367,0)" xlink:href="#E"/><use transform="matrix(0.06172839506172839,0,0,0.06172839506172839,42.716049382716044,0)" xlink:href="#y"/></g><g id="h"><use transform="matrix(0.06172839506172839,0,0,0.06172839506172839,0,0)" xlink:href="#F"/><use transform="matrix(0.06172839506172839,0,0,0.06172839506172839,17.28395061728395,0)" xlink:href="#E"/><use transform="matrix(0.06172839506172839,0,0,0.06172839506172839,29.629629629629626,0)" xlink:href="#y"/><use transform="matrix(0.06172839506172839,0,0,0.06172839506172839,41.9753086419753,0)" xlink:href="#G"/><use transform="matrix(0.06172839506172839,0,0,0.06172839506172839,49.32098765432098,0)" xlink:href="#z"/></g><g id="i"><use transform="matrix(0.06172839506172839,0,0,0.06172839506172839,0,0)" xlink:href="#D"/><use transform="matrix(0.06172839506172839,0,0,0.06172839506172839,4.876543209876543,0)" xlink:href="#L"/><use transform="matrix(0.06172839506172839,0,0,0.06172839506172839,9.753086419753085,0)" xlink:href="#M"/><use transform="matrix(0.06172839506172839,0,0,0.06172839506172839,22.098765432098766,0)" xlink:href="#y"/><use transform="matrix(0.06172839506172839,0,0,0.06172839506172839,34.44444444444444,0)" xlink:href="#C"/><use transform="matrix(0.06172839506172839,0,0,0.06172839506172839,46.79012345679012,0)" xlink:href="#G"/></g><path fill="#3a414a" d="M85-194c31 0 48 13 60 33l-1-100h32l1 261h-30c-2-10 0-23-3-31C134-8 116 4 85 4 32 4 16-35 15-94c0-66 23-100 70-100zm9 24c-40 0-46 34-46 75 0 40 6 74 45 74 42 0 51-32 51-76 0-42-9-74-50-73" id="O"/><g id="j"><use transform="matrix(0.06172839506172839,0,0,0.06172839506172839,0,0)" xlink:href="#J"/><use transform="matrix(0.06172839506172839,0,0,0.06172839506172839,14.814814814814813,0)" xlink:href="#K"/><use transform="matrix(0.06172839506172839,0,0,0.06172839506172839,25.925925925925924,0)" xlink:href="#C"/><use transform="matrix(0.06172839506172839,0,0,0.06172839506172839,38.2716049382716,0)" xlink:href="#D"/><use transform="matrix(0.06172839506172839,0,0,0.06172839506172839,43.148148148148145,0)" xlink:href="#y"/><use transform="matrix(0.06172839506172839,0,0,0.06172839506172839,55.49382716049382,0)" xlink:href="#O"/></g><path fill="#3a414a" d="M100-194c62-1 85 37 85 99 1 63-27 99-86 99S16-35 15-95c0-66 28-99 85-99zM99-20c44 1 53-31 53-75 0-43-8-75-51-75s-53 32-53 75 10 74 51 75" id="P"/><g id="k"><use transform="matrix(0.06172839506172839,0,0,0.06172839506172839,0,0)" xlink:href="#O"/><use transform="matrix(0.06172839506172839,0,0,0.06172839506172839,12.345679012345679,0)" xlink:href="#P"/><use transform="matrix(0.06172839506172839,0,0,0.06172839506172839,24.691358024691358,0)" xlink:href="#I"/></g><path fill="#3a414a" d="M115-194c55 1 70 41 70 98S169 2 115 4C84 4 66-9 55-30l1 105H24l-1-265h31l2 30c10-21 28-34 59-34zm-8 174c40 0 45-34 45-75s-6-73-45-74c-42 0-51 32-51 76 0 43 10 73 51 73" id="Q"/><g id="l"><use transform="matrix(0.06172839506172839,0,0,0.06172839506172839,0,0)" xlink:href="#Q"/><use transform="matrix(0.06172839506172839,0,0,0.06172839506172839,12.345679012345679,0)" xlink:href="#G"/><use transform="matrix(0.06172839506172839,0,0,0.06172839506172839,19.691358024691358,0)" xlink:href="#P"/><use transform="matrix(0.06172839506172839,0,0,0.06172839506172839,32.03703703703704,0)" xlink:href="#O"/><use transform="matrix(0.06172839506172839,0,0,0.06172839506172839,44.382716049382715,0)" xlink:href="#E"/><use transform="matrix(0.06172839506172839,0,0,0.06172839506172839,56.72839506172839,0)" xlink:href="#K"/><use transform="matrix(0.06172839506172839,0,0,0.06172839506172839,67.8395061728395,0)" xlink:href="#I"/></g><g id="m"><use transform="matrix(0.06172839506172839,0,0,0.06172839506172839,0,0)" xlink:href="#C"/><use transform="matrix(0.06172839506172839,0,0,0.06172839506172839,12.345679012345679,0)" xlink:href="#I"/><use transform="matrix(0.06172839506172839,0,0,0.06172839506172839,18.51851851851852,0)" xlink:href="#I"/><use transform="matrix(0.06172839506172839,0,0,0.06172839506172839,24.691358024691358,0)" xlink:href="#y"/><use transform="matrix(0.06172839506172839,0,0,0.06172839506172839,37.03703703703704,0)" xlink:href="#M"/><use transform="matrix(0.06172839506172839,0,0,0.06172839506172839,49.382716049382715,0)" xlink:href="#I"/><use transform="matrix(0.06172839506172839,0,0,0.06172839506172839,55.55555555555556,0)" xlink:href="#L"/><use transform="matrix(0.06172839506172839,0,0,0.06172839506172839,60.4320987654321,0)" xlink:href="#P"/><use transform="matrix(0.06172839506172839,0,0,0.06172839506172839,72.77777777777779,0)" xlink:href="#M"/></g><path fill="#3a414a" d="M212-179c-10-28-35-45-73-45-59 0-87 40-87 99 0 60 29 101 89 101 43 0 62-24 78-52l27 14C228-24 195 4 139 4 59 4 22-46 18-125c-6-104 99-153 187-111 19 9 31 26 39 46" id="R"/><g id="n"><use transform="matrix(0.06172839506172839,0,0,0.06172839506172839,0,0)" xlink:href="#R"/><use transform="matrix(0.06172839506172839,0,0,0.06172839506172839,15.987654320987653,0)" xlink:href="#P"/><use transform="matrix(0.06172839506172839,0,0,0.06172839506172839,28.333333333333332,0)" xlink:href="#M"/><use transform="matrix(0.06172839506172839,0,0,0.06172839506172839,40.67901234567901,0)" xlink:href="#K"/><use transform="matrix(0.06172839506172839,0,0,0.06172839506172839,51.79012345679013,0)" xlink:href="#C"/><use transform="matrix(0.06172839506172839,0,0,0.06172839506172839,64.13580246913581,0)" xlink:href="#I"/></g><path fill="#3a414a" d="M30 0v-248h33v221h125V0H30" id="S"/><g id="o"><use transform="matrix(0.06172839506172839,0,0,0.06172839506172839,0,0)" xlink:href="#S"/><use transform="matrix(0.06172839506172839,0,0,0.06172839506172839,12.345679012345679,0)" xlink:href="#L"/><use transform="matrix(0.06172839506172839,0,0,0.06172839506172839,17.22222222222222,0)" xlink:href="#M"/><use transform="matrix(0.06172839506172839,0,0,0.06172839506172839,29.5679012345679,0)" xlink:href="#y"/><use transform="matrix(0.06172839506172839,0,0,0.06172839506172839,41.913580246913575,0)" xlink:href="#C"/><use transform="matrix(0.06172839506172839,0,0,0.06172839506172839,54.25925925925925,0)" xlink:href="#G"/></g><path fill="#3a414a" d="M33 0v-248h34V0H33" id="T"/><path fill="#3a414a" d="M63-220v92h138v28H63V0H30v-248h175v28H63" id="U"/><g id="p"><use transform="matrix(0.06172839506172839,0,0,0.06172839506172839,0,0)" xlink:href="#S"/><use transform="matrix(0.06172839506172839,0,0,0.06172839506172839,12.345679012345679,0)" xlink:href="#T"/><use transform="matrix(0.06172839506172839,0,0,0.06172839506172839,18.51851851851852,0)" xlink:href="#U"/></g><g id="q"><use transform="matrix(0.06172839506172839,0,0,0.06172839506172839,0,0)" xlink:href="#S"/><use transform="matrix(0.06172839506172839,0,0,0.06172839506172839,12.345679012345679,0)" xlink:href="#C"/><use transform="matrix(0.06172839506172839,0,0,0.06172839506172839,24.691358024691358,0)" xlink:href="#z"/><use transform="matrix(0.06172839506172839,0,0,0.06172839506172839,35.80246913580247,0)" xlink:href="#y"/><use transform="matrix(0.06172839506172839,0,0,0.06172839506172839,48.148148148148145,0)" xlink:href="#G"/></g><g id="r"><use transform="matrix(0.06172839506172839,0,0,0.06172839506172839,0,0)" xlink:href="#D"/><use transform="matrix(0.06172839506172839,0,0,0.06172839506172839,4.876543209876543,0)" xlink:href="#C"/><use transform="matrix(0.06172839506172839,0,0,0.06172839506172839,17.22222222222222,0)" xlink:href="#z"/><use transform="matrix(0.06172839506172839,0,0,0.06172839506172839,28.333333333333332,0)" xlink:href="#y"/><use transform="matrix(0.06172839506172839,0,0,0.06172839506172839,40.67901234567901,0)" xlink:href="#G"/></g><path fill="#3a414a" d="M135-143c-3-34-86-38-87 0 15 53 115 12 119 90S17 21 10-45l28-5c4 36 97 45 98 0-10-56-113-15-118-90-4-57 82-63 122-42 12 7 21 19 24 35" id="V"/><path fill="#3a414a" d="M210-169c-67 3-38 105-44 169h-31v-121c0-29-5-50-35-48C34-165 62-65 56 0H25l-1-190h30c1 10-1 24 2 32 10-44 99-50 107 0 11-21 27-35 58-36 85-2 47 119 55 194h-31v-121c0-29-5-49-35-48" id="W"/><g id="s"><use transform="matrix(0.06172839506172839,0,0,0.06172839506172839,0,0)" xlink:href="#V"/><use transform="matrix(0.06172839506172839,0,0,0.06172839506172839,11.11111111111111,0)" xlink:href="#C"/><use transform="matrix(0.06172839506172839,0,0,0.06172839506172839,23.45679012345679,0)" xlink:href="#W"/><use transform="matrix(0.06172839506172839,0,0,0.06172839506172839,41.91358024691358,0)" xlink:href="#y"/></g><g id="t"><use transform="matrix(0.06172839506172839,0,0,0.06172839506172839,0,0)" xlink:href="#Q"/><use transform="matrix(0.06172839506172839,0,0,0.06172839506172839,12.345679012345679,0)" xlink:href="#G"/><use transform="matrix(0.06172839506172839,0,0,0.06172839506172839,19.691358024691358,0)" xlink:href="#P"/><use transform="matrix(0.06172839506172839,0,0,0.06172839506172839,32.03703703703704,0)" xlink:href="#K"/><use transform="matrix(0.06172839506172839,0,0,0.06172839506172839,43.14814814814815,0)" xlink:href="#y"/><use transform="matrix(0.06172839506172839,0,0,0.06172839506172839,55.49382716049383,0)" xlink:href="#V"/><use transform="matrix(0.06172839506172839,0,0,0.06172839506172839,66.60493827160494,0)" xlink:href="#V"/></g><path fill="#3a414a" d="M101-234c-31-9-42 10-38 44h38v23H63V0H32v-167H5v-23h27c-7-52 17-82 69-68v24" id="X"/><g id="u"><use transform="matrix(0.06172839506172839,0,0,0.06172839506172839,0,0)" xlink:href="#X"/><use transform="matrix(0.06172839506172839,0,0,0.06172839506172839,6.172839506172839,0)" xlink:href="#P"/><use transform="matrix(0.06172839506172839,0,0,0.06172839506172839,18.51851851851852,0)" xlink:href="#G"/></g><use transform="matrix(0.06172839506172839,0,0,0.06172839506172839,0,0)" xlink:href="#M" id="v"/><path fill="#3a414a" d="M106-169C34-169 62-67 57 0H25v-261h32l-1 103c12-21 28-36 61-36 89 0 53 116 60 194h-32v-121c2-32-8-49-39-48" id="Y"/><g id="w"><use transform="matrix(0.06172839506172839,0,0,0.06172839506172839,0,0)" xlink:href="#Y"/><use transform="matrix(0.06172839506172839,0,0,0.06172839506172839,12.345679012345679,0)" xlink:href="#y"/><use transform="matrix(0.06172839506172839,0,0,0.06172839506172839,24.691358024691358,0)" xlink:href="#C"/><use transform="matrix(0.06172839506172839,0,0,0.06172839506172839,37.03703703703704,0)" xlink:href="#O"/><use transform="matrix(0.06172839506172839,0,0,0.06172839506172839,49.382716049382715,0)" xlink:href="#V"/></g></defs></g></svg>